<svg width="215" height="215" viewBox="0 0 215 215" fill="none" xmlns="http://www.w3.org/2000/svg">
<path opacity="0.4" fill-rule="evenodd" clip-rule="evenodd" d="M162.439 21.1587H108.563C88.2254 21.1587 74.4886 35.0739 73.6858 55.8575V57.976L73.7304 58.0206V108.236C73.7304 130.081 87.7883 144.763 108.714 144.763H160.464L160.49 144.79H164.134C184.026 143.987 197.406 129.626 197.406 108.397V57.6415C197.406 35.7875 183.312 21.1587 162.439 21.1587ZM115.512 68.1542H61.635C41.2974 68.1542 27.5606 82.0694 26.7578 102.853V104.971L26.8024 105.016V155.231C26.8024 177.076 40.8603 191.758 61.7867 191.758H113.536L113.563 191.785H117.207C137.099 190.982 150.479 176.621 150.479 155.392V104.637C150.479 82.783 136.385 68.1542 115.512 68.1542Z" fill="url(#paint0_linear_6647_106)"/>
<path d="M150.477 144.764V104.637C150.477 82.7832 136.383 68.1543 115.511 68.1543H73.7295V108.236C73.7295 130.081 87.7874 144.764 108.714 144.764H150.477Z" fill="url(#paint1_linear_6647_106)"/>
<defs>
<linearGradient id="paint0_linear_6647_106" x1="112.082" y1="21.1587" x2="112.082" y2="191.785" gradientUnits="userSpaceOnUse">
<stop stop-color="#006FEE"/>
<stop offset="1" stop-color="#B2D2FF"/>
</linearGradient>
<linearGradient id="paint1_linear_6647_106" x1="112.103" y1="68.1543" x2="112.103" y2="144.764" gradientUnits="userSpaceOnUse">
<stop stop-color="#006FEE"/>
<stop offset="1" stop-color="#B2D2FF"/>
</linearGradient>
</defs>
</svg>
