<svg width="223" height="223" viewBox="0 0 223 223" fill="none" xmlns="http://www.w3.org/2000/svg">
<g opacity="0.4">
<path fill-rule="evenodd" clip-rule="evenodd" d="M95.8883 65.8293C95.8883 65.3647 95.8883 64.9001 95.9812 64.4355H62.9958C63.9249 66.5726 64.3895 68.8955 64.3895 71.4043C64.3895 73.8201 63.9249 76.236 63.0887 78.3731H77.6766C63.6462 89.8947 54.8191 107.177 54.8191 125.854V131.429C55.1908 131.336 55.5624 131.336 56.027 131.336H67.2699C67.7345 131.336 68.292 131.336 68.7566 131.522V125.854C68.7566 107.085 80.0924 90.0805 96.9103 82.5543C96.2599 80.8818 95.8883 79.0235 95.8883 77.0722V65.8293Z" fill="url(#paint0_linear_6637_86)"/>
<path fill-rule="evenodd" clip-rule="evenodd" d="M154.613 78.3731H169.201C168.365 76.236 167.9 73.8201 167.9 71.4043C167.9 68.8955 168.365 66.5726 169.294 64.4355H136.216C136.308 64.9001 136.308 65.3647 136.308 65.8293V77.0722C136.308 79.0235 135.937 80.8818 135.286 82.5543C152.197 89.9876 163.533 107.085 163.533 125.854V131.429C163.998 131.336 164.462 131.336 164.927 131.336H176.17C176.634 131.336 177.099 131.336 177.471 131.429V125.854C177.471 107.177 168.643 89.8947 154.613 78.3731Z" fill="url(#paint1_linear_6637_86)"/>
</g>
<path fill-rule="evenodd" clip-rule="evenodd" d="M63.0904 78.3718C63.9267 76.2347 64.3912 73.8189 64.3912 71.4031C64.3912 68.8943 63.9267 66.5714 62.9975 64.4343C60.21 57.8372 53.7058 53.1914 46.0867 53.1914C36.0517 53.1914 27.875 61.3681 27.875 71.4031C27.875 81.531 36.0517 89.7077 46.0867 89.7077C53.7058 89.7077 60.3029 85.0618 63.0904 78.3718Z" fill="url(#paint2_linear_6637_86)"/>
<path fill-rule="evenodd" clip-rule="evenodd" d="M121.813 51.2422H110.477C102.951 51.2422 96.6325 57.003 95.9821 64.4364C95.8892 64.9009 95.8892 65.3655 95.8892 65.8301V77.073C95.8892 79.0243 96.2608 80.8826 96.9112 82.5551C99.1412 87.8514 104.437 91.6609 110.477 91.6609H121.813C127.852 91.6609 133.056 87.8514 135.286 82.5551C135.936 80.8826 136.308 79.0243 136.308 77.073V65.8301C136.308 65.3655 136.308 64.9009 136.215 64.4364C135.565 57.003 129.339 51.2422 121.813 51.2422Z" fill="url(#paint3_linear_6637_86)"/>
<path fill-rule="evenodd" clip-rule="evenodd" d="M68.7579 131.521C68.2933 131.335 67.7358 131.335 67.2713 131.335H56.0283C55.5638 131.335 55.1921 131.335 54.8204 131.428C47.3871 131.986 41.4404 138.304 41.4404 145.923V157.166C41.4404 165.25 48.0375 171.754 56.0283 171.754H67.2713C75.355 171.754 81.8592 165.25 81.8592 157.166V145.923C81.8592 138.304 76.0983 132.172 68.7579 131.521Z" fill="url(#paint4_linear_6637_86)"/>
<path fill-rule="evenodd" clip-rule="evenodd" d="M186.204 53.1914C178.585 53.1914 172.081 57.8372 169.293 64.4343C168.364 66.5714 167.9 68.8943 167.9 71.4031C167.9 73.8189 168.364 76.2347 169.201 78.3718C171.988 85.0618 178.585 89.7077 186.204 89.7077C196.239 89.7077 204.416 81.531 204.416 71.4031C204.416 61.3681 196.239 53.1914 186.204 53.1914Z" fill="url(#paint5_linear_6637_86)"/>
<path fill-rule="evenodd" clip-rule="evenodd" d="M177.468 131.428C177.096 131.335 176.632 131.335 176.167 131.335H164.924C164.46 131.335 163.995 131.335 163.53 131.428C156.097 132.079 150.336 138.304 150.336 145.923V157.166C150.336 165.25 156.84 171.754 164.924 171.754H176.167C184.158 171.754 190.755 165.25 190.755 157.166V145.923C190.755 138.304 184.901 132.079 177.468 131.428Z" fill="url(#paint6_linear_6637_86)"/>
<defs>
<linearGradient id="paint0_linear_6637_86" x1="75.8647" y1="64.4355" x2="75.8647" y2="131.522" gradientUnits="userSpaceOnUse">
<stop stop-color="#006FEE"/>
<stop offset="1" stop-color="#B2D2FF"/>
</linearGradient>
<linearGradient id="paint1_linear_6637_86" x1="156.378" y1="64.4355" x2="156.378" y2="131.429" gradientUnits="userSpaceOnUse">
<stop stop-color="#006FEE"/>
<stop offset="1" stop-color="#B2D2FF"/>
</linearGradient>
<linearGradient id="paint2_linear_6637_86" x1="46.1331" y1="53.1914" x2="46.1331" y2="89.7077" gradientUnits="userSpaceOnUse">
<stop stop-color="#006FEE"/>
<stop offset="1" stop-color="#B2D2FF"/>
</linearGradient>
<linearGradient id="paint3_linear_6637_86" x1="116.099" y1="51.2422" x2="116.099" y2="91.6609" gradientUnits="userSpaceOnUse">
<stop stop-color="#006FEE"/>
<stop offset="1" stop-color="#B2D2FF"/>
</linearGradient>
<linearGradient id="paint4_linear_6637_86" x1="61.6498" y1="131.335" x2="61.6498" y2="171.754" gradientUnits="userSpaceOnUse">
<stop stop-color="#006FEE"/>
<stop offset="1" stop-color="#B2D2FF"/>
</linearGradient>
<linearGradient id="paint5_linear_6637_86" x1="186.158" y1="53.1914" x2="186.158" y2="89.7077" gradientUnits="userSpaceOnUse">
<stop stop-color="#006FEE"/>
<stop offset="1" stop-color="#B2D2FF"/>
</linearGradient>
<linearGradient id="paint6_linear_6637_86" x1="170.546" y1="131.335" x2="170.546" y2="171.754" gradientUnits="userSpaceOnUse">
<stop stop-color="#006FEE"/>
<stop offset="1" stop-color="#B2D2FF"/>
</linearGradient>
</defs>
</svg>
