<svg width="215" height="223" viewBox="0 0 215 223" fill="none" xmlns="http://www.w3.org/2000/svg">
<path fill-rule="evenodd" clip-rule="evenodd" d="M144.208 127.509L70.529 83.5688C63.7409 79.2605 55.4185 79.4478 48.8356 84.0862C42.2437 88.7157 39.2555 96.4761 41.0038 104.236L57.5772 186.55C59.3344 194.382 65.3376 200.118 73.2585 201.509C74.4449 201.714 75.6313 201.821 76.7819 201.821C83.3738 201.821 89.4124 198.548 93.0874 192.803L107.333 170.021L138.125 163.117C145.974 161.36 151.719 155.339 153.092 147.4C154.466 139.479 151.103 131.88 144.208 127.509Z" fill="url(#paint0_linear_6647_110)"/>
<path opacity="0.4" fill-rule="evenodd" clip-rule="evenodd" d="M153.963 30.0962C150.27 30.0962 147.273 33.0933 147.273 36.7862C147.273 40.4791 150.27 43.4762 153.963 43.4762C164.141 43.4762 172.419 51.7629 172.419 61.9406C172.419 72.1183 164.141 80.405 153.963 80.405C143.768 80.405 135.49 72.1183 135.49 61.9406C135.49 58.2477 132.493 55.2506 128.8 55.2506C125.107 55.2506 122.11 58.2477 122.11 61.9406C122.11 79.4951 136.4 93.7848 153.963 93.7848C171.518 93.7848 185.799 79.4951 185.799 61.9406C185.799 44.386 171.518 30.0962 153.963 30.0962Z" fill="url(#paint1_linear_6647_110)"/>
<defs>
<linearGradient id="paint0_linear_6647_110" x1="96.9536" y1="80.4673" x2="96.9536" y2="201.821" gradientUnits="userSpaceOnUse">
<stop stop-color="#006FEE"/>
<stop offset="1" stop-color="#B2D2FF"/>
</linearGradient>
<linearGradient id="paint1_linear_6647_110" x1="153.954" y1="30.0962" x2="153.954" y2="93.7848" gradientUnits="userSpaceOnUse">
<stop stop-color="#006FEE"/>
<stop offset="1" stop-color="#B2D2FF"/>
</linearGradient>
</defs>
</svg>
